<svg width="306" height="373" viewBox="0 0 306 373" fill="none" xmlns="http://www.w3.org/2000/svg">
<circle cx="224" cy="322" r="10.5" fill="#C4C4C4" stroke="black"/>
<rect x="174.869" y="227.869" width="103.262" height="92.2625" rx="2.60625" fill="#C4C4C4" stroke="black" stroke-width="1.7375"/>
<mask id="path-3-inside-1" fill="white">
<path d="M276 223.5C276 208.78 270.679 194.664 261.209 184.256C251.738 173.847 238.893 168 225.5 168C212.107 168 199.262 173.847 189.791 184.256C180.321 194.664 175 208.78 175 223.5L225.5 223.5H276Z"/>
</mask>
<path d="M276 223.5C276 208.78 270.679 194.664 261.209 184.256C251.738 173.847 238.893 168 225.5 168C212.107 168 199.262 173.847 189.791 184.256C180.321 194.664 175 208.78 175 223.5L225.5 223.5H276Z" fill="#C4C4C4" stroke="black" stroke-width="2" mask="url(#path-3-inside-1)"/>
<rect x="214.5" y="204.5" width="22" height="15" rx="1.5" fill="#C4C4C4" stroke="black"/>
<path d="M216.242 177.78C216.351 177.045 216.982 176.5 217.726 176.5H233.274C234.018 176.5 234.649 177.045 234.758 177.78L238.166 200.78C238.3 201.686 237.598 202.5 236.682 202.5H214.318C213.402 202.5 212.7 201.686 212.834 200.78L216.242 177.78Z" fill="#C4C4C4" stroke="black"/>
<circle cx="250" cy="210" r="9.5" fill="#C4C4C4" stroke="black"/>
<circle cx="250.5" cy="209.5" r="6" fill="#C4C4C4" stroke="black"/>
<circle cx="250.5" cy="209.5" r="3" fill="#C4C4C4" stroke="black"/>
<circle cx="225.5" cy="211.5" r="5" fill="#C4C4C4" stroke="black"/>
<circle cx="225.5" cy="189.5" r="9" fill="#C4C4C4" stroke="black"/>
<circle cx="225.5" cy="189.5" r="7" fill="#C4C4C4" stroke="black"/>
<circle cx="224.5" cy="297.5" r="12" fill="#C4C4C4" stroke="black"/>
<circle cx="225" cy="298" r="3.5" fill="#C4C4C4" stroke="black"/>
<rect x="254.5" y="235.5" width="15" height="77" rx="1.5" fill="#C4C4C4" stroke="black"/>
<rect x="180.5" y="234.5" width="15" height="77" rx="1.5" fill="#C4C4C4" stroke="black"/>
<rect x="198.5" y="265.5" width="7" height="47" rx="1.5" fill="#C4C4C4" stroke="black"/>
<rect x="295.131" y="231.869" width="25.2625" height="6.2625" rx="2.60625" transform="rotate(90 295.131 231.869)" fill="#C4C4C4" stroke="black" stroke-width="1.7375"/>
<rect x="237.5" y="265.5" width="14" height="15" rx="1.5" fill="#C4C4C4" stroke="black"/>
<rect x="270.869" y="353.869" width="25.2625" height="6.2625" rx="2.60625" fill="#C4C4C4" stroke="black" stroke-width="1.7375"/>
<rect x="278.869" y="227.869" width="10.2625" height="92.2625" rx="2.60625" fill="#C4C4C4" stroke="black" stroke-width="1.7375"/>
<rect x="163.131" y="231.869" width="25.2625" height="6.2625" rx="2.60625" transform="rotate(90 163.131 231.869)" fill="#C4C4C4" stroke="black" stroke-width="1.7375"/>
<rect x="161.869" y="227.869" width="10.2625" height="92.2625" rx="2.60625" fill="#C4C4C4" stroke="black" stroke-width="1.7375"/>
<rect x="173.869" y="230.131" width="6.2625" height="104.262" rx="2.60625" transform="rotate(-90 173.869 230.131)" fill="#C4C4C4" stroke="black" stroke-width="1.7375"/>
<rect x="201.869" y="240.131" width="4.2625" height="47.2625" rx="2.13125" transform="rotate(-90 201.869 240.131)" fill="#C4C4C4" stroke="black" stroke-width="1.7375"/>
<rect x="201.869" y="262.131" width="4.2625" height="47.2625" rx="2.13125" transform="rotate(-90 201.869 262.131)" fill="#C4C4C4" stroke="black" stroke-width="1.7375"/>
<rect x="201.869" y="250.131" width="4.2625" height="47.2625" rx="2.13125" transform="rotate(-90 201.869 250.131)" fill="#C4C4C4" stroke="black" stroke-width="1.7375"/>
<rect x="154.869" y="353.869" width="25.2625" height="6.2625" rx="2.60625" fill="#C4C4C4" stroke="black" stroke-width="1.7375"/>
<path d="M275.247 324.525C275.638 323.526 276.601 322.869 277.674 322.869H290.804C291.889 322.869 292.861 323.541 293.243 324.557L303.419 351.607C304.06 353.312 302.801 355.131 300.98 355.131H267.091C265.256 355.131 263.995 353.285 264.664 351.575L275.247 324.525Z" fill="#C4C4C4" stroke="black" stroke-width="1.7375"/>
<path d="M159.247 324.525C159.638 323.526 160.601 322.869 161.674 322.869H174.804C175.889 322.869 176.861 323.541 177.243 324.557L187.419 351.607C188.06 353.312 186.801 355.131 184.98 355.131H151.091C149.256 355.131 147.995 353.285 148.664 351.575L159.247 324.525Z" fill="#C4C4C4" stroke="black" stroke-width="1.7375"/>
<rect x="206.869" y="354.869" width="34.2625" height="7.2625" rx="2.60625" fill="#C4C4C4" stroke="black" stroke-width="1.7375"/>
<path d="M216.462 334.424C216.879 333.479 217.814 332.869 218.847 332.869H228.524C229.571 332.869 230.516 333.494 230.924 334.458L238.152 351.508C238.881 353.226 237.619 355.131 235.752 355.131H211.33C209.447 355.131 208.186 353.196 208.945 351.474L216.462 334.424Z" fill="#C4C4C4" stroke="black" stroke-width="1.7375"/>
<path d="M270.225 324.773C269.768 325.61 268.891 326.131 267.937 326.131L184.77 326.131C183.936 326.131 183.152 325.732 182.662 325.058L179.716 321.008C178.463 319.285 179.694 316.869 181.824 316.869L270.146 316.869C272.125 316.869 273.382 318.986 272.434 320.723L270.225 324.773Z" fill="#C4C4C4" stroke="black" stroke-width="1.7375"/>
<rect x="273.869" y="317.869" width="20.2625" height="6.2625" rx="2.60625" fill="#C4C4C4" stroke="black" stroke-width="1.7375"/>
<rect x="157.869" y="317.869" width="20.2625" height="6.2625" rx="2.60625" fill="#C4C4C4" stroke="black" stroke-width="1.7375"/>
<rect x="214.5" y="265.5" width="20" height="18" rx="1.5" fill="#C4C4C4" stroke="black"/>
<rect x="209.5" y="282.5" width="32" height="30" rx="1.5" fill="#C4C4C4" stroke="black"/>
<rect x="243.5" y="288.5" width="8" height="23" rx="1.5" fill="#C4C4C4" stroke="black"/>
<rect x="217.5" y="268.5" width="14" height="3" rx="1.5" fill="#C4C4C4" stroke="black"/>
<rect x="217.5" y="278.5" width="14" height="3" rx="1.5" fill="#C4C4C4" stroke="black"/>
<rect x="217.5" y="273.5" width="14" height="3" rx="1.5" fill="#C4C4C4" stroke="black"/>
<rect x="188.5" y="203.5" width="8" height="17" rx="1.5" fill="#C4C4C4" stroke="black"/>
<rect x="200.5" y="203.5" width="8" height="17" rx="1.5" fill="#C4C4C4" stroke="black"/>
<rect x="261.5" y="203.5" width="5" height="17" rx="1.5" fill="#C4C4C4" stroke="black"/>
<rect x="118.131" y="238.131" width="65.2625" height="42.2625" rx="2.60625" transform="rotate(-180 118.131 238.131)" fill="#C4C4C4" stroke="black" stroke-width="1.7375"/>
<path d="M122.5 109.5C122.5 124 48 121.5 48 109.5C37.5 55.5 39.5 20 74.5 12C74.5 12 79.2853 0.5 85.5 0.5C91.7148 0.5 96.5 12 96.5 12C131.5 21.5 131.167 59.8561 122.5 109.5Z" fill="#C4C4C4" stroke="black"/>
<rect x="79.1313" y="278.131" width="27.2625" height="24.2625" rx="2.60625" transform="rotate(-180 79.1313 278.131)" fill="#C4C4C4" stroke="black" stroke-width="1.7375"/>
<rect x="120.131" y="278.131" width="27.2625" height="24.2625" rx="2.60625" transform="rotate(-180 120.131 278.131)" fill="#C4C4C4" stroke="black" stroke-width="1.7375"/>
<path d="M52 333C51.7121 323.27 52.0467 318.032 54.5 309.5H75.5C77.6328 318.22 78.0442 323.419 78 333H52Z" fill="#C4C4C4" stroke="black"/>
<path d="M65 324C51.2241 322.835 44 352.5 44 352.5C44 362 82.5 363.5 82.5 352.5C82.5 352.5 78.0143 325.1 65 324Z" fill="#C4C4C4" stroke="black"/>
<path d="M64.5 329.5C53.7556 328.764 45 349 45 349C59.8538 357.063 67.8358 357.008 81.5 349C81.5 349 74.5792 330.19 64.5 329.5Z" fill="#C4C4C4" stroke="black"/>
<path d="M119.5 333.5C119.788 323.77 119.453 318.532 117 310H96C93.8672 318.72 93.4558 323.919 93.5 333.5H119.5Z" fill="#C4C4C4" stroke="black"/>
<path d="M106.5 324.5C120.276 323.335 127.5 353 127.5 353C127.5 362.5 89 364 89 353C89 353 93.4857 325.6 106.5 324.5Z" fill="#C4C4C4" stroke="black"/>
<path d="M107 330C117.744 329.264 126.5 349.5 126.5 349.5C111.646 357.563 103.664 357.508 90 349.5C90 349.5 96.9208 330.69 107 330Z" fill="#C4C4C4" stroke="black"/>
<path d="M54 309C63.1836 322.462 68.1101 322.61 76.5 309C76.5 309 90.5 260.5 65.5 260.5C40.5 260.5 54 309 54 309Z" fill="#C4C4C4" stroke="black"/>
<path d="M94.6396 309.5C103.823 322.962 108.75 323.11 117.14 309.5C117.14 309.5 131.14 261 106.14 261C81.1396 261 94.6396 309.5 94.6396 309.5Z" fill="#C4C4C4" stroke="black"/>
<path d="M112.13 192.185C112.13 193.531 111.443 195.521 110.055 197.815C108.684 200.081 106.688 202.547 104.21 204.827C99.2427 209.398 92.4432 213.13 85 213.13C77.5689 213.13 70.7714 209.233 65.796 204.569C63.3153 202.243 61.3155 199.752 59.9419 197.514C58.545 195.237 57.87 193.343 57.87 192.185C57.87 188.158 60.7012 184.347 65.6364 181.494C70.5489 178.654 77.393 176.87 85 176.87C92.607 176.87 99.4511 178.654 104.364 181.494C109.299 184.347 112.13 188.158 112.13 192.185Z" fill="#C4C4C4" stroke="black" stroke-width="1.74"/>
<path d="M112.13 192.5C112.13 192.874 111.995 193.398 111.656 194.063C111.322 194.719 110.814 195.461 110.137 196.256C108.783 197.846 106.8 199.59 104.323 201.209C99.3675 204.449 92.5304 207.13 85 207.13C77.479 207.13 70.6441 204.33 65.6833 201.026C63.2045 199.375 61.2164 197.613 59.8588 196.041C59.1795 195.254 58.6707 194.53 58.336 193.904C57.9933 193.263 57.87 192.795 57.87 192.5C57.87 191.22 58.498 189.918 59.8065 188.648C61.1176 187.375 63.0602 186.188 65.5315 185.173C70.4701 183.145 77.3528 181.87 85 181.87C92.6472 181.87 99.5299 183.145 104.468 185.173C106.94 186.188 108.882 187.375 110.194 188.648C111.502 189.918 112.13 191.22 112.13 192.5Z" fill="#C4C4C4" stroke="black" stroke-width="1.74"/>
<rect x="42.5813" y="149.192" width="40.2625" height="17.215" rx="2.60625" transform="rotate(125.435 42.5813 149.192)" fill="#C4C4C4" stroke="black" stroke-width="1.7375"/>
<rect x="44.5407" y="218.664" width="22.5094" height="6.10539" rx="2.60625" transform="rotate(154.366 44.5407 218.664)" fill="#C4C4C4" stroke="black" stroke-width="1.7375"/>
<path d="M39.5 213L23.5 221C7.48527 198.925 3.98479 191.08 5.5 183.5L23.5 175C31.9608 185.238 35.0688 194.379 39.5 213Z" fill="#C4C4C4" stroke="black"/>
<rect x="0.18659" y="1.21435" width="18.0095" height="5.99902" rx="2.60625" transform="matrix(-0.591514 0.806294 0.806294 0.591514 217.361 116.573)" fill="#C4C4C4" stroke="black" stroke-width="1.7375"/>
<rect x="0.236146" y="1.20569" width="18.0095" height="5.99902" rx="2.60625" transform="matrix(-0.558011 0.829834 0.829834 0.558011 212.989 110.461)" fill="#C4C4C4" stroke="black" stroke-width="1.7375"/>
<rect x="0.311648" y="1.18841" width="18.0095" height="5.99902" rx="2.60625" transform="matrix(-0.504614 0.863345 0.863345 0.504614 208.407 107.32)" fill="#C4C4C4" stroke="black" stroke-width="1.7375"/>
<rect x="0.416404" y="1.15588" width="18.0095" height="5.99902" rx="2.60625" transform="matrix(-0.425598 0.904912 0.904912 0.425598 200.952 107.287)" fill="#C4C4C4" stroke="black" stroke-width="1.7375"/>
<rect x="1.07737" y="0.590534" width="18.0095" height="5.99902" rx="2.60625" transform="matrix(0.280192 0.959944 0.959944 -0.280192 185.209 115.89)" fill="#C4C4C4" stroke="black" stroke-width="1.7375"/>
<path d="M213.5 134.5C213.826 136.497 203.808 145.943 203.5 145L188.5 134C188.042 133.047 195 122 196 122C197 122 203.5 119.5 208 123.5C212.5 127.5 213.174 132.503 213.5 134.5Z" fill="#C4C4C4" stroke="black"/>
<rect x="118.131" y="196.131" width="65.2625" height="16.2625" rx="2.60625" transform="rotate(-180 118.131 196.131)" fill="#C4C4C4" stroke="black" stroke-width="1.7375"/>
<circle cx="104.5" cy="162.5" r="24.63" fill="#C4C4C4" stroke="black" stroke-width="1.74"/>
<circle cx="64.5" cy="162.5" r="24.63" fill="#C4C4C4" stroke="black" stroke-width="1.74"/>
<path d="M131.131 163.94C131.131 165.252 130.156 166.36 128.855 166.526L85.33 172.082C85.1109 172.11 84.8891 172.11 84.67 172.082L41.145 166.526C39.8437 166.36 38.8688 165.252 38.8688 163.94L38.8688 133.793C38.8688 132.569 39.7196 131.511 40.9142 131.247L67.4152 125.408C67.5509 125.378 67.6887 125.359 67.8274 125.351L85.0036 124.37L104.785 125.335C105.177 125.354 105.566 125.411 105.947 125.504L129.146 131.194C130.312 131.48 131.131 132.525 131.131 133.726L131.131 163.94Z" fill="#C4C4C4" stroke="black" stroke-width="1.7375"/>
<rect x="143.429" y="139.207" width="40.2625" height="17.215" rx="2.60625" transform="rotate(55.7029 143.429 139.207)" fill="#C4C4C4" stroke="black" stroke-width="1.7375"/>
<rect x="-0.374781" y="1.17004" width="27.2882" height="2.2625" rx="1.13125" transform="matrix(-0.889105 0.457703 0.457703 0.889105 175.563 149.301)" fill="#C4C4C4" stroke="black" stroke-width="1.7375"/>
<path d="M185.172 139.492L199.396 150.341C186.619 174.434 181.113 181.03 173.64 183.004L158.087 170.58C163.558 158.477 170.4 151.664 185.172 139.492Z" fill="#C4C4C4" stroke="black"/>
<circle cx="84.5" cy="172.5" r="19.63" fill="#C4C4C4" stroke="black" stroke-width="1.74"/>
<path d="M82.9206 228.319C79.728 221.221 63.8894 205.013 51 206.5V210.5L83 237.5V228.707C83 228.572 82.9762 228.443 82.9206 228.319Z" fill="#C4C4C4" stroke="black"/>
<path d="M88.0794 228.915C91.272 221.816 107.111 205.609 120 207.096V211.096L88 238.096V229.303C88 229.168 88.0238 229.039 88.0794 228.915Z" fill="#C4C4C4" stroke="black"/>
<path d="M88.4096 231.689C86.1817 242.819 86.4148 248.771 90.4096 258.689C100.915 261.977 115.41 259.689 118.91 258.689C122.41 257.689 131.663 218.01 118.91 211.189C109.91 209.689 100.91 217.189 88.4096 231.689Z" fill="#C4C4C4" stroke="black"/>
<path d="M82.0291 230.689C84.2569 241.819 84.0239 247.771 80.0291 257.689C69.5233 260.977 55.0291 258.689 51.5291 257.689C48.0291 256.689 38.7752 217.01 51.5291 210.189C60.5291 208.689 69.5291 216.189 82.0291 230.689Z" fill="#C4C4C4" stroke="black"/>
<rect x="187.473" y="132.081" width="22.5094" height="6.10539" rx="2.60625" transform="rotate(36.5756 187.473 132.081)" fill="#C4C4C4" stroke="black" stroke-width="1.7375"/>
<mask id="path-80-inside-2" fill="white">
<path d="M47.1567 130.923C42.877 129.61 38.29 129.7 34.0647 131.178C29.8395 132.657 26.1973 135.446 23.6693 139.141L41 151L47.1567 130.923Z"/>
</mask>
<path d="M47.1567 130.923C42.877 129.61 38.29 129.7 34.0647 131.178C29.8395 132.657 26.1973 135.446 23.6693 139.141L41 151L47.1567 130.923Z" fill="#C4C4C4" stroke="black" stroke-width="3.48" mask="url(#path-80-inside-2)"/>
<rect x="-1.15538" y="-0.417779" width="34.6588" height="2.2625" rx="1.13125" transform="matrix(-0.424521 -0.905418 -0.905418 0.424521 30.9196 216.994)" fill="#C4C4C4" stroke="black" stroke-width="1.7375"/>
<rect x="0.133173" y="1.22136" width="34.6588" height="2.2625" rx="1.13125" transform="matrix(-0.626294 0.779587 0.779587 0.626294 192.315 143.924)" fill="#C4C4C4" stroke="black" stroke-width="1.7375"/>
<circle r="12.13" transform="matrix(-0.346409 0.938083 0.938083 0.346409 161.664 178.761)" fill="#C4C4C4" stroke="black" stroke-width="1.74"/>
<circle cx="13" cy="178" r="12.13" fill="#C4C4C4" stroke="black" stroke-width="1.74"/>
<mask id="path-85-inside-3" fill="white">
<path d="M122.843 131.923C127.123 130.61 131.71 130.7 135.935 132.178C140.16 133.657 143.803 136.446 146.331 140.141L129 152L122.843 131.923Z"/>
</mask>
<path d="M122.843 131.923C127.123 130.61 131.71 130.7 135.935 132.178C140.16 133.657 143.803 136.446 146.331 140.141L129 152L122.843 131.923Z" fill="#C4C4C4" stroke="black" stroke-width="3.48" mask="url(#path-85-inside-3)"/>
<circle cx="85" cy="173" r="14.5" fill="#C4C4C4" stroke="black"/>
<circle cx="85" cy="173" r="12.5" fill="#C4C4C4" stroke="black"/>
<circle cx="85.5" cy="172.5" r="11" fill="#C4C4C4" stroke="black"/>
<rect x="45.1312" y="43.8687" width="40.2625" height="8.2625" rx="2.60625" transform="rotate(90 45.1312 43.8687)" fill="#C4C4C4" stroke="black" stroke-width="1.7375"/>
<rect x="133.131" y="43.8687" width="40.2625" height="8.2625" rx="2.60625" transform="rotate(90 133.131 43.8687)" fill="#C4C4C4" stroke="black" stroke-width="1.7375"/>
<rect x="93.25" y="96.25" width="17.5" height="1.5" rx="0.75" transform="rotate(-180 93.25 96.25)" fill="#C4C4C4" stroke="black" stroke-width="1.5"/>
<rect x="106.131" y="129.131" width="40.2625" height="4.2625" rx="2.13125" transform="rotate(-180 106.131 129.131)" fill="#C4C4C4" stroke="black" stroke-width="1.7375"/>
<rect x="110.131" y="125.131" width="49.2625" height="4.2625" rx="2.13125" transform="rotate(-180 110.131 125.131)" fill="#C4C4C4" stroke="black" stroke-width="1.7375"/>
<rect x="108.131" y="133.131" width="46.2625" height="4.2625" rx="2.13125" transform="rotate(-180 108.131 133.131)" fill="#C4C4C4" stroke="black" stroke-width="1.7375"/>
<rect x="-0.885811" y="-0.851347" width="27.2882" height="2.2625" rx="1.13125" transform="matrix(-0.0198353 -0.999803 -0.999803 0.0198353 30.8204 190.3)" fill="#C4C4C4" stroke="black" stroke-width="1.7375"/>
<path d="M124.507 70.4167L124.5 70.458V70.5C124.5 98.7851 106.486 121.5 84.5 121.5C62.5139 121.5 44.5 98.7851 44.5 70.5V70.4684L44.4961 70.4371C42.2612 52.8066 46.7678 40.0888 54.5399 31.779C62.3212 23.4594 73.4299 19.5 84.5 19.5C95.5735 19.5 107.059 23.4617 115.027 31.7833C122.98 40.0898 127.485 52.798 124.507 70.4167Z" fill="#C4C4C4" stroke="black"/>
<path d="M64 98L47.5 62H122L106 98H64Z" fill="#C4C4C4" stroke="black"/>
<path d="M85.5 44.5C69.8264 31.9877 59.9363 35.388 44 49.5V63L49 61.5C49 61.5 60.5 84.5 65 84.5C69.5 84.5 85.5 64.5 85.5 64.5" stroke="black"/>
<path d="M85.5 44.5C101.174 31.9877 111.064 35.388 127 49.5V63L122 61.5C122 61.5 110.5 84.5 106 84.5C101.5 84.5 85.5 64.5 85.5 64.5" stroke="black"/>
<path d="M76 92L73.5 98H97L94.5 92H76Z" fill="#C4C4C4" stroke="black"/>
<circle cx="65" cy="60" r="16.5" fill="#C4C4C4" stroke="black"/>
<circle cx="65.5" cy="60.5" r="13" fill="#C4C4C4" stroke="black"/>
<path d="M89.5 12C89.5 13.5591 89.0254 14.9514 88.282 15.9426C87.5387 16.9337 86.55 17.5 85.5 17.5C84.45 17.5 83.4613 16.9337 82.718 15.9426C81.9746 14.9514 81.5 13.5591 81.5 12C81.5 10.4409 81.9746 9.04859 82.718 8.05736C83.4613 7.06629 84.45 6.5 85.5 6.5C86.55 6.5 87.5387 7.06629 88.282 8.05736C89.0254 9.04859 89.5 10.4409 89.5 12Z" fill="#C4C4C4" stroke="black"/>
<path d="M86.5 12.5C86.5 13.1153 86.3493 13.6482 86.1319 14.0105C85.9085 14.3828 85.6696 14.5 85.5 14.5C85.3304 14.5 85.0915 14.3828 84.8681 14.0105C84.6507 13.6482 84.5 13.1153 84.5 12.5C84.5 11.8847 84.6507 11.3518 84.8681 10.9895C85.0915 10.6172 85.3304 10.5 85.5 10.5C85.6696 10.5 85.9085 10.6172 86.1319 10.9895C86.3493 11.3518 86.5 11.8847 86.5 12.5Z" fill="#C4C4C4" stroke="black"/>
<circle cx="104" cy="60" r="16.5" fill="#C4C4C4" stroke="black"/>
<circle cx="104.5" cy="60.5" r="13" fill="#C4C4C4" stroke="black"/>
<rect x="93.6897" y="96.6897" width="18.3795" height="2.37946" rx="0.930804" transform="rotate(-180 93.6897 96.6897)" fill="#C4C4C4" stroke="black" stroke-width="0.620536"/>
<rect x="-1.16657" y="-0.385437" width="18.0095" height="5.99902" rx="2.60625" transform="matrix(-0.449574 -0.893243 -0.893243 0.449574 43.5954 252.185)" fill="#C4C4C4" stroke="black" stroke-width="1.7375"/>
<rect x="-1.18137" y="-0.337357" width="18.0095" height="5.99902" rx="2.60625" transform="matrix(-0.485765 -0.87409 -0.87409 0.485765 51.0261 251.066)" fill="#C4C4C4" stroke="black" stroke-width="1.7375"/>
<rect x="-1.20028" y="-0.262248" width="18.0095" height="5.99902" rx="2.60625" transform="matrix(-0.539877 -0.841744 -0.841744 0.539877 55.9061 248.412)" fill="#C4C4C4" stroke="black" stroke-width="1.7375"/>
<rect x="-1.21889" y="-0.154146" width="18.0095" height="5.99902" rx="2.60625" transform="matrix(-0.612802 -0.790236 -0.790236 0.612802 59.322 241.785)" fill="#C4C4C4" stroke="black" stroke-width="1.7375"/>
<rect x="-1.01551" y="0.691508" width="18.0095" height="5.99902" rx="2.60625" transform="matrix(-0.982459 -0.186479 -0.186479 0.982459 58.8105 223.852)" fill="#C4C4C4" stroke="black" stroke-width="1.7375"/>
<path d="M31.4163 241.091C29.4891 240.474 25.6254 227.258 26.6051 227.412L43.2189 219.046C44.276 219.072 50.9562 230.288 50.5019 231.179C50.0476 232.07 49.322 238.996 43.7142 241.188C38.1065 243.38 33.3434 241.707 31.4163 241.091Z" fill="#C4C4C4" stroke="black"/>
</svg>
