<svg width="120" height="120" viewBox="0 0 120 120" fill="none" xmlns="http://www.w3.org/2000/svg">
<path fill-rule="evenodd" clip-rule="evenodd" d="M5.03906 61.3348C5.03906 58.0149 7.73044 55.3235 11.0504 55.3235H114.961V98.2617C114.961 101.582 112.27 104.273 108.95 104.273H11.0504C7.73044 104.273 5.03906 101.582 5.03906 98.2617V61.3348ZM17.4911 73.5722H29.9432V86.0243H17.4911V73.5722ZM48.6214 73.5722C45.1828 73.5722 42.3953 76.3597 42.3953 79.7983C42.3953 83.2368 45.1828 86.0243 48.6214 86.0243H97.1416C100.58 86.0243 103.368 83.2368 103.368 79.7983C103.368 76.3597 100.58 73.5722 97.1416 73.5722H48.6214Z" fill="#686868"/>
<path d="M11.2129 19.9186C12.3889 16.6874 15.9617 15.0214 19.1929 16.1975L110.785 49.5341C114.016 50.7102 115.682 54.2829 114.506 57.5141C113.33 60.7453 109.757 62.4113 106.526 61.2353L14.934 27.8986C11.7029 26.7226 10.0368 23.1498 11.2129 19.9186Z" fill="#686868"/>
</svg>
