<svg width="120" height="120" viewBox="0 0 120 120" fill="none" xmlns="http://www.w3.org/2000/svg">
<path fill-rule="evenodd" clip-rule="evenodd" d="M11.3807 15C7.87831 15 5.03906 17.8393 5.03906 21.3416V88.8097C5.03906 92.3121 7.87831 95.1514 11.3807 95.1514H108.619C112.122 95.1514 114.961 92.3121 114.961 88.8097V21.3416C114.961 17.8393 112.122 15 108.619 15H11.3807ZM19.8362 24.8648C17.1122 24.8648 14.9038 27.0731 14.9038 29.7972V80.3542C14.9038 83.0783 17.1122 85.2866 19.8362 85.2866H100.164C102.888 85.2866 105.096 83.0783 105.096 80.3542V29.7972C105.096 27.0731 102.888 24.8648 100.164 24.8648H19.8362Z" fill="#686868"/>
<path d="M39.9181 95.1514H80.0819V100.084C80.0819 102.808 77.8736 105.016 75.1495 105.016H44.8505C42.1264 105.016 39.9181 102.808 39.9181 100.084V95.1514Z" fill="#686868"/>
</svg>
