<svg width="28" height="35" viewBox="0 0 28 35" fill="none" xmlns="http://www.w3.org/2000/svg">
<path fill-rule="evenodd" clip-rule="evenodd" d="M2.70968 5.41934H1.35484V31.3226C1.35484 32.9794 2.69799 34.3226 4.35484 34.3226H23.6452C25.302 34.3226 26.6452 32.9794 26.6452 31.3226V5.41934H25.2903V30.9677C25.2903 32.0723 24.3949 32.9677 23.2903 32.9677H4.70968C3.60511 32.9677 2.70968 32.0723 2.70968 30.9677V5.41934Z" fill="#686868"/>
<rect y="4.06451" width="28" height="1.35484" rx="0.677419" fill="#686868"/>
<rect x="7.67741" y="9.03226" width="1.80645" height="21.6774" rx="0.903226" fill="#686868"/>
<rect x="18.5161" y="9.03226" width="1.80645" height="21.6774" rx="0.903226" fill="#686868"/>
<rect x="13.0968" y="9.03226" width="1.80645" height="21.6774" rx="0.903226" fill="#686868"/>
<path fill-rule="evenodd" clip-rule="evenodd" d="M9.67741 0C8.57284 0 7.67741 0.895432 7.67741 2V4.06452H9.03225V2.35484C9.03225 1.80255 9.47997 1.35484 10.0323 1.35484H17.9677C18.52 1.35484 18.9677 1.80255 18.9677 2.35484V4.06452H20.3226V2C20.3226 0.89543 19.4271 0 18.3226 0H9.67741Z" fill="#686868"/>
</svg>
