<svg width="16" height="28" viewBox="0 0 16 28" fill="none" xmlns="http://www.w3.org/2000/svg">
<path d="M12.9563 0.432302C13.5327 -0.1441 14.4673 -0.144101 15.0437 0.432302C15.6201 1.0087 15.6201 1.94324 15.0437 2.51964L2.51964 15.0437C1.94324 15.6201 1.0087 15.6201 0.432302 15.0437C-0.144101 14.4673 -0.144101 13.5327 0.432302 12.9563L12.9563 0.432302Z" fill="#686868"/>
<path d="M0.432302 15.0437C-0.144101 14.4673 -0.144101 13.5327 0.432302 12.9563C1.0087 12.3799 1.94324 12.3799 2.51964 12.9563L15.0437 25.4804C15.6201 26.0568 15.6201 26.9913 15.0437 27.5677C14.4673 28.1441 13.5327 28.1441 12.9563 27.5677L0.432302 15.0437Z" fill="#686868"/>
</svg>
