<svg width="120" height="120" viewBox="0 0 120 120" fill="none" xmlns="http://www.w3.org/2000/svg">
<path fill-rule="evenodd" clip-rule="evenodd" d="M5.03906 20.2042C5.03906 14.6764 9.52018 10.1953 15.0479 10.1953H104.952C110.48 10.1953 114.961 14.6764 114.961 20.2042V80.0817C114.961 85.6095 110.48 90.0906 104.952 90.0906H69.881L78.1708 102.465C80.281 105.615 78.0233 109.845 74.2319 109.845H45.7681C41.9767 109.845 39.719 105.615 41.8292 102.465L50.119 90.0906H15.0479C9.52018 90.0906 5.03906 85.6095 5.03906 80.0817V20.2042ZM15.0479 25.1208C15.0479 22.4054 17.2492 20.2042 19.9646 20.2042H100.035C102.751 20.2042 104.952 22.4054 104.952 25.1208V70.0729H15.0479V25.1208Z" fill="#686868"/>
</svg>
