<svg width="826" height="601" viewBox="0 0 826 601" fill="none" xmlns="http://www.w3.org/2000/svg">
<path fill-rule="evenodd" clip-rule="evenodd" d="M42.3576 442.716C63.3702 475.839 100.366 497.843 142.461 497.843H682.651C748.032 497.843 801.112 444.762 801.112 379.382V142.46C801.112 77.0808 748.032 24 682.651 24H353.857L42.3576 442.716Z" fill="#21A0DE"/>
<path fill-rule="evenodd" clip-rule="evenodd" d="M353.857 24H142.461C77.0806 24 24.0002 77.0808 24.0002 142.46V379.382C24.0002 402.667 30.7338 424.393 42.3576 442.716L353.857 24Z" fill="#68C0E6"/>
<path fill-rule="evenodd" clip-rule="evenodd" d="M24.0008 260.921L260.923 24.0001H682.654C748.035 24.0001 801.115 77.0801 801.115 142.461V379.382C801.115 444.762 748.035 497.843 682.654 497.843H142.461C77.0815 497.843 24.0008 444.762 24.0008 379.382V260.921Z" fill="#21A0DE"/>
<path fill-rule="evenodd" clip-rule="evenodd" d="M94.672 34.0831C109.282 27.5911 125.456 24.0001 142.461 24.0001H260.922L24 260.921V142.461L24.155 136.368L24.612 130.356L25.366 124.43L26.409 118.599C29.961 101.257 37.309 85.2901 47.547 71.6031L51.065 67.1271L54.79 62.8281L57.11 60.3941C60.992 56.3491 65.159 52.5791 69.588 49.1311L71.603 47.5471C73.151 46.4451 74.699 45.3441 76.248 44.2431L79.746 41.9991C82.816 40.0721 85.98 38.2831 89.24 36.6541L91.122 35.6891L94.672 34.0831Z" fill="#68C0E6"/>
<path fill-rule="evenodd" clip-rule="evenodd" d="M801.112 142.46C801.112 77.0803 748.031 24.0001 682.652 24.0001H142.461C77.0809 24.0001 24.0004 77.0803 24.0004 142.46V379.382C24.0004 444.762 77.0809 497.843 142.461 497.843H682.652C748.031 497.843 801.112 444.762 801.112 379.382V142.46Z" fill="url(#paint0_linear)"/>
<path d="M152.429 585.101H672.698" stroke="#39484C" stroke-width="30.0063" stroke-miterlimit="1.40244" stroke-linecap="round" stroke-linejoin="round"/>
<path fill-rule="evenodd" clip-rule="evenodd" d="M801.129 90.8846C801.129 53.9693 771.154 24.0004 734.25 24.0004H90.8952C53.9909 24.0004 24.012 53.9693 24.012 90.8846V430.96C24.012 467.875 53.9909 497.844 90.8952 497.844H734.25C771.154 497.844 801.129 467.875 801.129 430.96V90.8846Z" stroke="#39484C" stroke-width="48.0025" stroke-miterlimit="1.40244" stroke-linecap="round" stroke-linejoin="round"/>
<path d="M465.795 166.736C506.304 186.498 534.235 228.094 534.235 276.161C534.235 343.313 479.715 397.832 412.563 397.832C345.412 397.832 290.892 343.313 290.892 276.161C290.892 228.174 318.734 186.638 359.136 166.834" stroke="#39484C" stroke-width="30.0063" stroke-miterlimit="1.40244" stroke-linecap="round" stroke-linejoin="round"/>
<path d="M412.563 124.015L412.438 215.046" stroke="#39484C" stroke-width="30.0063" stroke-miterlimit="1.40244" stroke-linecap="round" stroke-linejoin="round"/>
<path d="M152.429 585.101H672.698" stroke="#39484C" stroke-width="30.0063" stroke-miterlimit="1.40244" stroke-linecap="round" stroke-linejoin="round"/>
<path fill-rule="evenodd" clip-rule="evenodd" d="M801.129 90.8846C801.129 53.9693 771.154 24.0004 734.25 24.0004H90.8952C53.9909 24.0004 24.012 53.9693 24.012 90.8846V430.96C24.012 467.875 53.9909 497.844 90.8952 497.844H734.25C771.154 497.844 801.129 467.875 801.129 430.96V90.8846Z" stroke="#39484C" stroke-width="48.0025" stroke-miterlimit="1.40244" stroke-linecap="round" stroke-linejoin="round"/>
<path d="M465.795 166.736C506.304 186.498 534.235 228.094 534.235 276.161C534.235 343.313 479.715 397.832 412.563 397.832C345.412 397.832 290.892 343.313 290.892 276.161C290.892 228.174 318.734 186.638 359.136 166.834" stroke="#39484C" stroke-width="30.0063" stroke-miterlimit="1.40244" stroke-linecap="round" stroke-linejoin="round"/>
<path d="M412.563 124.015L412.438 215.046" stroke="#39484C" stroke-width="30.0063" stroke-miterlimit="1.40244" stroke-linecap="round" stroke-linejoin="round"/>
<defs>
<linearGradient id="paint0_linear" x1="69.5878" y1="49.131" x2="412.556" y2="272.549" gradientUnits="userSpaceOnUse">
<stop stop-color="white"/>
<stop offset="0.52" stop-color="#86C0E3"/>
<stop offset="1" stop-color="#5BA9D9"/>
</linearGradient>
</defs>
</svg>
