<svg width="120" height="120" viewBox="0 0 120 120" fill="none" xmlns="http://www.w3.org/2000/svg">
<path d="M51.9 20.7572C50.7276 22.3969 51.3513 24.6483 53.0969 25.6561C54.8426 26.664 57.0696 26.0561 58.2803 24.4445C60.7177 21.1999 63.7911 18.4687 67.3259 16.4253C71.9177 13.7711 77.1266 12.371 82.4303 12.3654C87.7339 12.3599 92.9458 13.7491 97.5431 16.3937C101.082 18.4296 104.161 21.1544 106.605 24.3939C107.82 26.003 110.048 26.6062 111.791 25.5947C113.535 24.5832 114.154 22.3305 112.978 20.6933C109.863 16.3556 105.85 12.72 101.196 10.0432C95.4854 6.75791 89.011 5.03219 82.4226 5.03908C75.8342 5.04598 69.3634 6.78526 63.6594 10.0825C59.0117 12.7691 55.0062 16.4131 51.9 20.7572Z" fill="#686868"/>
<path d="M65.9216 32.4659C64.1759 31.458 63.5571 29.2021 64.8302 27.6393C66.5723 25.5008 68.6944 23.688 71.0998 22.2976C74.563 20.2957 78.4916 19.2397 82.4918 19.2355C86.4919 19.2313 90.4227 20.2791 93.8901 22.2737C96.2984 23.6591 98.4243 25.4675 100.171 27.6023C101.447 29.1624 100.833 31.4196 99.0896 32.4311C97.3461 33.4426 95.1384 32.8088 93.7483 31.3492C92.7247 30.2743 91.5477 29.3474 90.2502 28.601C87.8925 27.2447 85.2195 26.5322 82.4994 26.535C79.7793 26.5379 77.1078 27.2559 74.7529 28.6172C73.4569 29.3663 72.282 30.2957 71.2606 31.3727C69.8735 32.8353 67.6672 33.4737 65.9216 32.4659Z" fill="#686868"/>
<path fill-rule="evenodd" clip-rule="evenodd" d="M82.3546 41.4561C78.9753 41.4561 76.2359 44.1955 76.2359 47.5748V65.9308H11.2651C7.82656 65.9308 5.03906 68.7183 5.03906 72.1569V108.654C5.03906 112.093 7.82656 114.88 11.2651 114.88H108.735C112.173 114.88 114.961 112.093 114.961 108.654V72.1569C114.961 68.7183 112.173 65.9308 108.735 65.9308H88.4733V47.5748C88.4733 44.1955 85.7339 41.4561 82.3546 41.4561ZM23.2878 84.1796H35.5252V96.417H23.2878V84.1796ZM78.4634 84.1796H66.226V96.417H78.4634V84.1796ZM44.7569 84.1796H56.9943V96.417H44.7569V84.1796Z" fill="#686868"/>
</svg>
