<svg width="120" height="120" viewBox="0 0 120 120" fill="none" xmlns="http://www.w3.org/2000/svg">
<path d="M5.03906 29.9895C5.03906 24.5588 9.44157 20.1562 14.8723 20.1562H100.035C102.751 20.1562 104.952 22.3575 104.952 25.0729C104.952 25.7932 104.797 26.4774 104.519 27.0939C103.748 28.8013 102.03 29.9895 100.035 29.9895H20.1402C17.3278 29.9895 15.0479 32.2694 15.0479 35.0817V84.7749C15.0479 87.5872 17.3278 89.8671 20.1402 89.8671H30.0612C32.8251 89.8671 35.0656 92.1077 35.0656 94.8715C35.0656 97.6354 32.8251 99.876 30.0612 99.876H14.8723C9.44157 99.876 5.03906 95.4734 5.03906 90.0427V29.9895Z" fill="#686868"/>
<path fill-rule="evenodd" clip-rule="evenodd" d="M80.1933 39.9984C77.284 39.9984 74.9255 42.3569 74.9255 45.2662V94.6081C74.9255 97.5175 77.284 99.876 80.1933 99.876H109.693C112.602 99.876 114.961 97.5175 114.961 94.6081V45.2662C114.961 42.3569 112.602 39.9984 109.693 39.9984H80.1933ZM104.952 50.0072H84.9344V90.0427H104.952V50.0072Z" fill="#686868"/>
<path fill-rule="evenodd" clip-rule="evenodd" d="M49.9911 60.0161C47.2758 60.0161 45.0745 62.2174 45.0745 64.9327V68.9615C42.055 71.6927 40.1579 75.6417 40.1579 80.0338C40.1579 84.4259 42.055 88.375 45.0745 91.1062V94.9593C45.0745 97.6747 47.2758 99.876 49.9911 99.876H60.1756C62.891 99.876 65.0922 97.6747 65.0922 94.9593V91.1062C68.1117 88.375 70.0089 84.4259 70.0089 80.0338C70.0089 75.6417 68.1117 71.6927 65.0922 68.9615V64.9327C65.0922 62.2174 62.891 60.0161 60.1756 60.0161H49.9911ZM62.4583 79.946C62.4583 84.0676 59.1171 87.4088 54.9956 87.4088C50.874 87.4088 47.5328 84.0676 47.5328 79.946C47.5328 75.8245 50.874 72.4833 54.9956 72.4833C59.1171 72.4833 62.4583 75.8245 62.4583 79.946Z" fill="#686868"/>
</svg>
